<svg width="436" height="68" viewBox="0 0 436 68" fill="none" xmlns="http://www.w3.org/2000/svg">
<rect x="0.5" y="0.5" width="435" height="71" rx="15.5" fill="#121213" stroke="url(#paint0_linear_631_1533)"/>
<g clip-path="url(#clip0_631_1533)">
<path d="M24 36C24 27.1634 31.1634 20 40 20C48.8366 20 56 27.1634 56 36C56 44.8366 48.8366 52 40 52C31.1634 52 24 44.8366 24 36Z" fill="url(#paint1_linear_631_1533)"/>
<path d="M46.2224 37.7778C46.2224 41.6893 43.4224 44.8893 40.0001 44.8893C36.5778 44.8893 33.7778 41.6893 33.7778 37.7778C33.7778 33.867 40.0001 25.3333 40.0001 25.3333C40.0001 25.3333 46.2224 33.867 46.2224 37.7778Z" fill="white"/>
</g>
<path d="M79.8 43.2C78.48 43.2 77.2933 42.8933 76.24 42.28C75.1867 41.6667 74.36 40.8133 73.76 39.72C73.1733 38.6267 72.88 37.3867 72.88 36C72.88 34.6133 73.1733 33.3733 73.76 32.28C74.36 31.1867 75.1867 30.3333 76.24 29.72C77.2933 29.1067 78.48 28.8 79.8 28.8C81.36 28.8 82.68 29.22 83.76 30.06C84.8533 30.8867 85.6 32.0267 86 33.48L84.54 33.9C84.22 32.74 83.6533 31.8333 82.84 31.18C82.0267 30.5267 81.0133 30.2 79.8 30.2C78.7867 30.2 77.8733 30.4533 77.06 30.96C76.26 31.4667 75.6333 32.16 75.18 33.04C74.7267 33.92 74.5 34.9067 74.5 36C74.5 37.0933 74.7267 38.08 75.18 38.96C75.6333 39.84 76.26 40.5333 77.06 41.04C77.8733 41.5467 78.7867 41.8 79.8 41.8C81.04 41.8 82.0733 41.4533 82.9 40.76C83.74 40.0667 84.3267 39.14 84.66 37.98L86.12 38.44C85.7067 39.8933 84.9467 41.0533 83.84 41.92C82.7333 42.7733 81.3867 43.2 79.8 43.2ZM88.3447 29H89.9047V41.6H96.8247V43H88.3447V29ZM103.058 43.2C102.018 43.2 101.091 42.98 100.278 42.54C99.4645 42.0867 98.8311 41.4667 98.3778 40.68C97.9245 39.8933 97.6978 39.0133 97.6978 38.04V29H99.2578V38.04C99.2578 38.76 99.4111 39.4067 99.7178 39.98C100.038 40.54 100.484 40.9867 101.058 41.32C101.644 41.64 102.311 41.8 103.058 41.8C103.804 41.8 104.464 41.64 105.038 41.32C105.624 40.9867 106.071 40.54 106.378 39.98C106.698 39.4067 106.858 38.76 106.858 38.04V29H108.418V38.04C108.418 39.0133 108.191 39.8933 107.738 40.68C107.284 41.4667 106.651 42.0867 105.838 42.54C105.024 42.98 104.098 43.2 103.058 43.2ZM116.092 43.2C114.585 43.2 113.358 42.8267 112.412 42.08C111.465 41.3333 110.912 40.32 110.752 39.04L112.292 38.76C112.398 39.6533 112.785 40.3867 113.452 40.96C114.132 41.52 115.012 41.8 116.092 41.8C117.012 41.8 117.758 41.5667 118.332 41.1C118.918 40.6333 119.212 40.0467 119.212 39.34C119.212 38.74 119.045 38.26 118.712 37.9C118.392 37.54 117.985 37.2733 117.492 37.1C117.012 36.9133 116.358 36.7267 115.532 36.54C114.572 36.3 113.798 36.0667 113.212 35.84C112.625 35.6 112.125 35.2267 111.712 34.72C111.298 34.2133 111.092 33.52 111.092 32.64C111.092 31.88 111.298 31.2133 111.712 30.64C112.125 30.0533 112.685 29.6 113.392 29.28C114.112 28.96 114.912 28.8 115.792 28.8C117.245 28.8 118.418 29.1733 119.312 29.92C120.205 30.6533 120.732 31.6067 120.892 32.78L119.372 33.02C119.252 32.1933 118.878 31.52 118.252 31C117.638 30.4667 116.818 30.2 115.792 30.2C114.912 30.2 114.165 30.4267 113.552 30.88C112.952 31.32 112.652 31.9067 112.652 32.64C112.652 33.2 112.805 33.6467 113.112 33.98C113.432 34.3 113.825 34.5467 114.292 34.72C114.772 34.88 115.412 35.0533 116.212 35.24C117.198 35.48 117.992 35.72 118.592 35.96C119.205 36.1867 119.725 36.5667 120.152 37.1C120.578 37.62 120.792 38.3333 120.792 39.24C120.792 40.0133 120.585 40.7 120.172 41.3C119.758 41.9 119.192 42.3667 118.472 42.7C117.765 43.0333 116.972 43.2 116.092 43.2ZM123.423 29H127.683C129.136 29 130.423 29.3 131.543 29.9C132.676 30.4867 133.556 31.3133 134.183 32.38C134.809 33.4333 135.123 34.64 135.123 36C135.123 37.36 134.809 38.5733 134.183 39.64C133.556 40.6933 132.676 41.52 131.543 42.12C130.423 42.7067 129.136 43 127.683 43H123.423V29ZM127.683 41.6C128.843 41.6 129.863 41.3667 130.743 40.9C131.623 40.42 132.303 39.76 132.783 38.92C133.263 38.0667 133.503 37.0933 133.503 36C133.503 34.9067 133.263 33.94 132.783 33.1C132.303 32.2467 131.623 31.5867 130.743 31.12C129.863 30.64 128.843 30.4 127.683 30.4H124.983V41.6H127.683ZM139.903 30.4H135.443V29H145.943V30.4H141.463V43H139.903V30.4Z" fill="white"/>
<path d="M161.24 43.2C159.733 43.2 158.507 42.8267 157.56 42.08C156.613 41.3333 156.06 40.32 155.9 39.04L157.44 38.76C157.547 39.6533 157.933 40.3867 158.6 40.96C159.28 41.52 160.16 41.8 161.24 41.8C162.16 41.8 162.907 41.5667 163.48 41.1C164.067 40.6333 164.36 40.0467 164.36 39.34C164.36 38.74 164.193 38.26 163.86 37.9C163.54 37.54 163.133 37.2733 162.64 37.1C162.16 36.9133 161.507 36.7267 160.68 36.54C159.72 36.3 158.947 36.0667 158.36 35.84C157.773 35.6 157.273 35.2267 156.86 34.72C156.447 34.2133 156.24 33.52 156.24 32.64C156.24 31.88 156.447 31.2133 156.86 30.64C157.273 30.0533 157.833 29.6 158.54 29.28C159.26 28.96 160.06 28.8 160.94 28.8C162.393 28.8 163.567 29.1733 164.46 29.92C165.353 30.6533 165.88 31.6067 166.04 32.78L164.52 33.02C164.4 32.1933 164.027 31.52 163.4 31C162.787 30.4667 161.967 30.2 160.94 30.2C160.06 30.2 159.313 30.4267 158.7 30.88C158.1 31.32 157.8 31.9067 157.8 32.64C157.8 33.2 157.953 33.6467 158.26 33.98C158.58 34.3 158.973 34.5467 159.44 34.72C159.92 34.88 160.56 35.0533 161.36 35.24C162.347 35.48 163.14 35.72 163.74 35.96C164.353 36.1867 164.873 36.5667 165.3 37.1C165.727 37.62 165.94 38.3333 165.94 39.24C165.94 40.0133 165.733 40.7 165.32 41.3C164.907 41.9 164.34 42.3667 163.62 42.7C162.913 43.0333 162.12 43.2 161.24 43.2ZM172.631 43.2C171.671 43.2 170.811 42.9733 170.051 42.52C169.305 42.0667 168.718 41.4467 168.291 40.66C167.878 39.8733 167.671 38.9933 167.671 38.02C167.671 37.0333 167.878 36.1467 168.291 35.36C168.705 34.5733 169.285 33.96 170.031 33.52C170.778 33.0667 171.631 32.84 172.591 32.84C173.458 32.84 174.238 33.04 174.931 33.44C175.638 33.84 176.191 34.3933 176.591 35.1C176.991 35.8067 177.191 36.6067 177.191 37.5C177.191 37.8067 177.165 38.1067 177.111 38.4H169.231C169.311 39.4667 169.651 40.3133 170.251 40.94C170.865 41.5533 171.665 41.86 172.651 41.86C173.411 41.86 174.058 41.6933 174.591 41.36C175.138 41.0267 175.558 40.5467 175.851 39.92L177.171 40.48C176.745 41.3467 176.138 42.02 175.351 42.5C174.578 42.9667 173.671 43.2 172.631 43.2ZM175.651 37.18C175.611 36.26 175.311 35.5333 174.751 35C174.191 34.4533 173.451 34.18 172.531 34.18C171.625 34.18 170.885 34.4467 170.311 34.98C169.738 35.5133 169.391 36.2467 169.271 37.18H175.651ZM179.152 28.8H180.652V43H179.152V28.8ZM183.253 28.8H184.753V43H183.253V28.8Z" fill="#F56C6A"/>
<defs>
<linearGradient id="paint0_linear_631_1533" x1="0" y1="0" x2="4.57255" y2="93.1728" gradientUnits="userSpaceOnUse">
<stop stop-color="#29292A" stop-opacity="0.5"/>
<stop offset="0.539708" stop-color="#040405"/>
<stop offset="1" stop-color="#1D1D1E"/>
</linearGradient>
<linearGradient id="paint1_linear_631_1533" x1="29.9531" y1="25.5497" x2="62.9411" y2="63.4383" gradientUnits="userSpaceOnUse">
<stop stop-color="#1A1E21"/>
<stop offset="1" stop-color="#06060A"/>
</linearGradient>
<clipPath id="clip0_631_1533">
<rect width="32" height="32" fill="white" transform="translate(24 20)"/>
</clipPath>
</defs>
</svg>
